<svg xmlns="http://www.w3.org/2000/svg" version="1.1" xmlns:xlink="http://www.w3.org/1999/xlink" xmlns:svgjs="http://svgjs.dev/svgjs" width="1440" height="560" preserveAspectRatio="none" viewBox="0 0 1440 560">
    <g mask="url(&quot;#SvgjsMask1021&quot;)" fill="none">
        <rect width="1440" height="560" x="0" y="0" fill="rgba(3, 51, 37, 1)"></rect>
        <path d="M0,512.67C94.432,497.997,130.623,379.826,208.543,324.499C281.216,272.897,384.559,270.926,439.405,200.669C499.509,123.676,540.051,20.846,520.256,-74.802C500.66,-169.486,410.226,-228.763,337.373,-292.335C273.421,-348.14,207.858,-410.728,123.596,-420.928C43.429,-430.632,-24.901,-371.212,-101.434,-345.453C-174.223,-320.954,-252.649,-317.633,-315.297,-273.207C-389.477,-220.603,-461.577,-156.95,-489.36,-70.359C-519.139,22.453,-515.894,128.519,-472.136,215.617C-428.95,301.576,-336.236,345.267,-254.813,396.496C-174.169,447.235,-94.148,527.299,0,512.67" fill="#02291e"></path>
        <path d="M1440 1053.26C1547.993 1066.529 1673.541 1123.9279999999999 1759.776 1057.58 1847.283 990.254 1819.452 851.7470000000001 1842.311 743.729 1859.878 660.718 1870.475 581.443 1878.413 496.966 1889.02 384.08000000000004 1954.5729999999999 261.751 1896.7640000000001 164.212 1839.396 67.418 1709.007 39.097999999999956 1597.619 23.19799999999998 1495.217 8.580000000000041 1394.772 40.45399999999995 1298.719 78.84300000000002 1209.993 114.30399999999997 1131.292 166.18099999999998 1065.796 235.75099999999998 998.0989999999999 307.659 929.8779999999999 386.88300000000004 916.587 484.745 903.334 582.331 950 675.58 994.105 763.634 1036.875 849.024 1086.939 932.7280000000001 1167.03 984.75 1247.329 1036.907 1344.964 1041.583 1440 1053.26" fill="#043d2c"></path>
    </g>
    <defs>
        <mask id="SvgjsMask1021">
            <rect width="1440" height="560" fill="#ffffff"></rect>
        </mask>
    </defs>
</svg>